<?xml version="1.0" encoding="utf-8"?>
<!-- Generator: Adobe Illustrator 26.3.1, SVG Export Plug-In . SVG Version: 6.00 Build 0)  -->
<svg version="1.1" id="Layer_1" xmlns="http://www.w3.org/2000/svg" xmlns:xlink="http://www.w3.org/1999/xlink" x="0px" y="0px"
	 viewBox="0 0 1057.6 358.1" style="enable-background:new 0 0 1057.6 358.1;" xml:space="preserve">
<style type="text/css">
	.st0{display:none;opacity:0.5;}
	.st1{display:inline;fill:#BCBEC0;}
	.st2{fill:#3A53A4;}
	.st3{fill:#6ABD45;}
	.st4{fill:#3C54A4;}
	.st5{fill:#6CBE46;}
</style>
<g class="st0">
	<path class="st1" d="M831.9,13.1c-3.6-1.3-8.9-0.1-10.1,2.9c-1.4,3.5-3.7,3.5-6.6,3.5c-90.9,0-181.9,0-272.8,0
		c0.1,1.4,0.3,2.8,0.4,4.3c18.3,0,36.6,0,54.9,0c48.3,0,96.6,0,145,0c24.8,0,49.6,0,74.4,0c1.5,0,3-0.4,3.9,1.7
		c1.9,4,5.5,5.6,10,4.8c3.7-0.7,6.8-4.1,7-7.9C838.1,18.2,835.7,14.4,831.9,13.1z M828.8,28.3c-3.9-0.1-6.9-3.2-6.8-6.8
		c0.1-3.5,3.3-6.6,6.7-6.6c3.8,0,6.6,2.9,6.6,6.8C835.4,25.4,832.4,28.4,828.8,28.3z"/>
	<path class="st1" d="M326.1-210.4c0-2.1,0.6-3.3,2.5-4.5c1.4-0.9,2.3-2.7,3.4-4.2c-0.8,0-1.7,0-2.5,0c-3.6,4.6-7.9,4.6-11.4,0
		c-0.8,0-1.7,0-2.5,0c1.1,1.4,2,3.2,3.4,4.2c1.6,1.1,2.5,2.2,2.5,4.3c0,16.7,0,33.5,0,50.2c1.6-0.2,3.1-0.3,4.7-0.4
		C326.1-177.4,326.1-193.9,326.1-210.4z"/>
	<path class="st1" d="M125.2-49.3c-0.5,0-1-0.1-1.6-0.1c0,1.7,0,3.4,0,5.1c12,0,24,0,36,0c0.8-1.6,1.5-3.3,2.3-4.9
		C149.7-49.3,137.5-49.3,125.2-49.3z"/>
	<path class="st1" d="M360-214.4c0-1.6-0.1-3.2-0.2-4.7c-1.5,0-3,0-4.4,0c0.1,19.3,0.1,38.7,0.2,58c1.5,0.1,2.9,0.2,4.4,0.3
		C360-178.7,360-196.5,360-214.4z"/>
	<path class="st1" d="M252-145.1c1.1-4.3-3.1-8.2-7.8-8.2c-4.9,0-8.2,3.6-7.9,8.6c0.3,4.3,4.7,7.8,9.1,7.3c0.5-0.1,1-0.1,1.5,0
		c1.8-1,3.7-1.9,5.5-2.9C251.7-141.6,251.5-143.1,252-145.1z"/>
	<path class="st1" d="M394.3-217.6c0-0.5-0.2-1-0.3-1.5c-1.5,0-3,0-4.4,0c0.1,2.4,0.3,4.8,0.3,7.2c0,18.7,0.1,37.3,0.1,56
		c1.5,0.4,2.9,0.7,4.4,1.1C394.3-175.7,394.3-196.6,394.3-217.6z"/>
	<path class="st1" d="M142.8-27.4c-1.7,0-2.9,0.4-3.8,2.1c-3.7,7-7.6,13.8-11.2,20.8c-1,2-2.4,2.1-4.1,2c0,1.5,0,3,0,4.4
		c4.2,1,6.5-0.9,8.3-4.6c3-6.2,6.5-12.3,10-18.3c0.5-0.9,1.9-1.7,2.8-1.7c2.2,0,4.3,0,6.5-0.1c0.5-1.5,1-3.1,1.5-4.6
		C149.4-27.4,146.1-27.4,142.8-27.4z"/>
	<path class="st1" d="M616.6-62.6c1.1,0,2.4-0.3,3.2-1c8.8-6.5,17.5-13.1,26.3-19.7c1.5-1.1,2.5-1.9,4.6-0.7c3.2,1.9,6.5,1,9.4-1.3
		c3-2.4,3.8-5.6,2.9-9.1c-0.8-3.4-3.1-5.7-6.6-6.5c-6.2-1.4-11.3,3-11.1,9.5c0,1.4-0.4,3.3-1.3,4c-8.3,6.5-16.7,12.8-25.2,19
		c-1.2,0.9-2.8,1.5-4.3,1.5c-33.8,0.1-67.6,0.1-101.4,0.1c0.8,1.3,1.6,2.6,2.4,4C549.2-62.6,582.9-62.6,616.6-62.6z M654-98.8
		c3.6-0.1,6.8,3,6.9,6.8c0,3.7-2.8,6.6-6.5,6.6c-3.9,0.1-6.9-2.8-6.9-6.6C647.5-95.5,650.5-98.7,654-98.8z"/>
	<path class="st1" d="M874.4-59.2c-3.9-2.7-8.3-2.2-11,1.7c-1.4,2-2.8,2.3-4.9,2.3c-35.9,0-71.7,0-107.6,0c-76.5,0-153,0-229.4,0
		c-0.6,0-1.1,0-1.7,0c0.8,1.4,1.5,2.8,2.2,4.3c80.1,0.1,160.2,0.1,240.3,0.1c31.3,0,62.7,0,94,0c3.1,0,6.4-0.6,7.7,3.5
		c0.2,0.7,1.2,1.1,1.9,1.5c3.9,2.1,8.4,0.8,10.9-3.2C878.8-52.2,877.8-56.9,874.4-59.2z"/>
	<path class="st1" d="M507.8-85.8c0.4-0.7,1.9-1.1,2.9-1.1c30.3,0,60.6,0,90.8,0.1c1.1,0,2.2,1.1,3.2,1.7c2.1,1.3,4,3.2,6.2,3.8
		c3.4,0.8,7-2,8.2-5.5c1.2-3.4-0.5-7.4-4-9.4c-2.9-1.7-6.7-1-9.2,1.5c-1.5,1.5-2.3,3.5-5.4,3.5c-28.9-0.2-57.8-0.1-86.7-0.2
		c-0.9,0-1.8-0.1-3-0.2c2.1-4,4.3-7.4,5.9-11.2c2.1-5.1,5.2-7,11.2-7c41.7,0.4,83.4,0.2,125,0.3c1.6,0,3.5,0.2,4.7,1.1
		c10.8,8.4,21.5,16.9,32.2,25.5c0.8,0.6,1.3,2,1.3,3c-0.3,3.7,1.4,7.2,4.6,8.6c3.1,1.4,7.4,0.5,9.5-1.9c2.2-2.5,2.4-6.9,0.6-9.7
		c-1.8-2.8-6-4.5-9.2-3.1c-2.2,1-3.4,0.2-4.9-1c-10.6-8.4-21.2-16.9-32-25.2c-1.4-1.1-3.4-1.8-5.1-1.8c-42-0.1-84-0.1-126-0.1
		c-1.8,0-3.5,0-5.7,0c1.2-2.3,2.4-4.2,3.2-6.2c0.9-2.1,2.3-2.6,4.4-2.6c43,0.1,86,0,129,0.2c2,0,4.3,0.8,6,2
		c9.4,6.2,18.6,12.7,27.9,19c17,11.5,33.9,23,51,34.4c1.6,1.1,3.8,1.8,5.8,1.8c27.5,0.1,55.1,0.1,82.6,0.1c2.1,0,3.6,0.2,4.9,2.4
		c1.8,3.1,5.9,4.2,9.2,2.9c3.1-1.2,5.4-4.6,5.3-7.9c-0.1-3.3-2.8-6.7-5.8-7.5c-3.5-0.9-7.1,0.6-9.1,3.5c-0.7,0.9-1.9,2-2.9,2
		c-27.7,0.1-55.5,0.1-83.2,0c-1.2,0-2.5-0.3-3.5-0.9c-8.8-5.7-17.6-11.5-26.3-17.4c-13.9-9.3-27.7-18.8-41.5-28.2
		c-2.7-1.9-5.4-3.8-8.1-5.7c3.5-0.6,6.8-0.8,10.1-0.6c1.6,0.1,3.3,0.6,4.6,1.4c19.7,13.4,39.4,26.9,59.1,40.5
		c3.3,2.3,6.6,3.3,10.8,3.3c25.3-0.2,50.6-0.1,76-0.1c1.1,0,2.2,0,3.6,0c0-2.1,0-3.7,0-5.4c0.1-32.3,0.1-64.6,0.2-96.9
		c0-1,0.2-2.2,0.7-2.9c3.4-3.9,6.9-7.6,10.4-11.5c7.6-8.4,15.2-16.8,22.9-25.2c-2.1,0-4.2,0-6.3,0c-10.1,11.1-20.2,22.3-30.3,33.4
		c-1.5,1.7-2.1,3.4-2.1,5.6c0.1,31.8,0.1,63.7,0.1,95.5c0,0.8,0,1.6,0,2.7c-1.2,0.1-2.1,0.2-3,0.2c-24.6,0-49.2,0.1-73.7-0.1
		c-1.8,0-3.9-0.8-5.4-1.8c-17.3-11.7-34.6-23.6-51.9-35.3c-2.2-1.5-4.6-2.7-6.5-4.4c-3.5-3.1-7.4-3.7-12-3.6
		c-17.8,0.3-35.6,0.3-53.4,0.3c-32.6,0-65.2-0.1-97.7-0.2c-2,0-3,0.5-3.9,2.2c-7.4,13.8-14.9,27.6-22.4,41.5
		c0.9,1.2,1.9,2.5,2.8,3.7C505.5-81.6,506.7-83.7,507.8-85.8z"/>
	<path class="st1" d="M869.2-31.7c-3.6,0.7-7.5,4.5-6.1,9.7c0.2,0.8,0.5,2,0.2,2.3c-2.2,2.2-3.9,5-7.9,5c-37.1-0.1-74.3,0-111.4,0
		c-69.3,0-138.7,0-208,0c0.4,1.4,0.8,2.9,1.2,4.3c67.6,0,135.2-0.1,202.8-0.1c39.1,0,78.2,0.1,117.3,0.2c2,0,3.6-0.4,5-2
		c2.2-2.6,4.4-4.6,8.7-3.8c4.4,0.8,8.2-3.7,8-8.1C878.6-29,874.1-32.6,869.2-31.7z"/>
	<path class="st1" d="M427.8-159.1c0-19.4,0.2-38.8,0.3-58.1c0-0.6,0.1-1.3,0.2-1.9c-1.7,0-3.4,0-5.1,0c0.1,7.3,0.3,14.5,0.4,21.8
		c0.1,15.7,0.2,31.4,0.2,47.1c0,1.9,0,3.9,0,5.8c1.4,0.6,2.8,1.3,4.2,1.9C427.8-148,427.7-153.6,427.8-159.1z"/>
	<path class="st1" d="M278-151.8c0-2,0.4-3.2,2.4-4.2c7.1-3.6,14.1-7.5,21.1-11.4c1-0.6,2-2.2,2-3.3c0.1-16.1,0.1-32.3,0.1-48.4
		c-1.5,0-3,0-4.4,0c0,15-0.1,30,0,44.9c0,2.3-0.7,3.5-2.7,4.6c-7.2,3.7-14.3,7.7-21.3,11.6c-0.8,0.4-1.5,1.7-1.5,2.7
		c0,1.9,0,3.9,0,5.8c1.5-0.5,3-1.1,4.5-1.6C278-151.3,278-151.5,278-151.8z"/>
	<path class="st1" d="M934.5-35.7c-0.9-3.8-5.1-7.1-8.5-6.7c-4.2,0.5-7.1,4-7.2,8.5c0,1.2-0.5,2.8-1.3,3.4
		c-5,3.9-10.1,7.6-15.2,11.3c-1.6,1.2-2.3,2.4-2.3,4.4c0.1,7,0,13.9,0.1,20.9c0,2-0.6,3-2.4,3.9c-8.1,4.2-16.1,8.6-24.2,12.8
		c-2,1-2.9,2.2-2.8,4.6c0.1,11.5,0.1,23,0,34.5c0,1.3-0.8,3.1-1.8,4c-9.8,8.3-19.7,16.4-29.7,24.5c-1.1,0.9-2.9,1.2-4.3,1.2
		c-37,0.1-74.1,0-111.1,0.1c-1.8,0-3.8,0.5-5.3,1.5c-19,12.5-38,25.2-57,37.8c-1.7,1.1-3.7,2.4-5.6,2.4c-37.7,0.1-75.3,0.1-113,0
		c-1,0-2.4-0.8-2.9-1.6c-3.6-6.3-7.1-12.7-10.4-19.1c-0.7,1.7-1.3,3.3-2,4.9c3,5.5,6,11,8.8,16.6c1.3,2.6,2.7,3.6,5.7,3.5
		c19.2-0.2,38.4-0.1,57.5,0c1.2,0,2.9,0.4,3.5,1.3c12.2,17.1,24.3,34.4,36.3,51.6c1.4,2,2.8,2.9,5.3,2.9c58.2-0.1,116.5,0,174.7,0
		c2.4,0,4.2,0.1,5.6,2.8c1.4,2.8,5.6,3.8,8.7,2.8c2.9-1,5.2-4.3,5.1-7.6c-0.1-3.3-2.2-6.3-5.1-7.2c-3.3-1-7.4,0.1-8.9,2.9
		c-1,1.8-2.1,2.3-4,2.3c-23.3,0-46.5,0-69.8,0.1c-2.1,0-3.4-0.5-4.5-2.5c-7.5-13.1-15.3-26.1-22.8-39.1c-1-1.8-2.1-2.5-4.1-2.4
		c-30.2,0.1-60.4,0.1-90.5,0c-1.1,0-2.2,0-3.8,0c0.7,1.1,1.1,1.7,1.5,2.2c7.6,9.9,15.1,19.9,22.9,29.8c0.7,0.9,2.4,1.5,3.7,1.6
		c8.5,0.2,17.1,0.1,25.6,0.4c1.2,0,2.4,1.1,3.5,1.8c1.5,1.1,2.7,2.8,4.4,3.4c4.1,1.4,8.1-0.8,9.6-4.9c1.3-3.6-0.3-7.6-3.7-9.3
		c-3.9-1.9-7.9-0.6-10.4,3.1c-0.6,0.8-1.8,1.6-2.8,1.7c-7.8,0.1-15.6,0-23.4,0c-2.3,0-3.6-0.9-4.9-2.6c-4.4-5.9-8.9-11.7-13.4-17.5
		c-1.2-1.5-2.2-3.1-3.6-5.1c6.9,0,13.1,0,19.3,0c21.3,0,42.6,0,63.9,0.1c1.1,0,2.8,0.5,3.3,1.3c7,11.7,13.9,23.5,20.7,35.4
		c0.4,0.7,0.8,1.5,1.5,2.9c-1.9,0-3.1,0-4.4,0c-9,0-17.9-0.1-26.9,0c-21.3,0-42.6,0.1-63.9,0.1c-2.5,0-4.1-0.5-5.7-2.8
		c-8.7-12.7-17.7-25.1-26.5-37.7c-2.5-3.6-5-7.2-7.7-11.2c1.6,0,2.8,0,3.9,0c13.8,0,27.7-0.2,41.5,0.1c4.4,0.1,7.9-1.2,11.4-3.6
		c18.2-12.1,36.5-24.2,54.7-36.3c2.2-1.5,4.4-2.1,7-2.1c36.7,0.1,73.4,0.1,110.2,0c1.6,0,3.5-0.4,4.6-1.3
		c10.3-8.2,20.4-16.6,30.7-24.8c2.6-2.1,3.9-4.3,3.8-7.9c-0.3-10.7,0-21.3-0.1-32c0-2,0.5-3.2,2.4-4.2c8.3-4.3,16.5-8.9,24.8-13.2
		c1.7-0.9,2.4-1.8,2.4-3.8c-0.1-7.1-0.2-14.1,0-21.2c0-1.4,0.9-3.2,2-4.1c4.2-3.4,8.7-6.6,13.1-9.9c1.3-1,2.4-1.4,4.2-0.7
		c2.9,1.1,5.8,0.7,8.2-1.6C934-30.6,935.2-32.8,934.5-35.7z"/>
	<path class="st1" d="M342,240.4c0,1.6,0,3.1,0,4.7c0,1.8,0.6,2.8,2.2,3.7c6.6,3.5,13.1,7.2,19.7,10.6c2.3,1.2,3,2.6,3,5.1
		c-0.1,18.1,0.1,36.3-0.2,54.4c-0.1,4.6,1.8,7,5.2,9.4c16.3,11.3,32.5,22.8,48.8,34.2c1.6,1.1,2.1,2.3,2.1,4.1
		c-0.1,31-0.1,62-0.1,93.1c0,0.9-0.1,1.8-0.2,2.8c-0.6-0.1-0.9-0.1-1.1-0.3c-12-7-23.9-14-35.9-20.8c-1.9-1.1-2.2-2.4-2.2-4.3
		c0-26.6,0-53.2,0-79.8c0-0.9,0.1-1.8,0.1-3.2c7.9,6,15.4,11.7,22.8,17.5c1.1,0.9,2,2.7,2.1,4.1c0.3,7.2,0.1,14.3,0.3,21.5
		c0.1,2.6-0.4,4.4-2.7,6.1c-3.8,2.7-3.9,8.3-0.8,11.3c3.4,3.3,8.8,3,11.7-0.6c2.9-3.5,2.2-8.8-1.8-11.2c-1.6-1-2-2.1-2-3.8
		c0-8.4,0-16.9-0.2-25.3c0-1.4-1-3.1-2.1-4c-6.9-5.6-14-11.1-21.1-16.5c-3.4-2.6-6.8-5-10.4-7.6c-0.1,0.5-0.3,0.7-0.3,0.9
		c0,31.4-0.1,62.9,0,94.3c0,0.9,0.8,2.1,1.6,2.6c12.7,7.5,25.5,15,38.4,22.4c2.8,1.6,4,3.3,4,6.6c-0.1,22.8,0.1,45.6,0.1,68.3
		c0,1.4-1,3.1-2.1,4.1c-3.6,3.1-4.6,7.5-2.1,10.9c1.9,2.4,4.3,3.9,7.4,3.3c3.1-0.6,5.5-2.3,6.3-5.5c0.8-3.2,0.1-6.2-2.9-8.1
		c-1.8-1.2-2.4-2.5-2.3-4.7c0.2-7.1,0.1-14.3,0.1-21.4c0-51.5-0.1-103-0.1-154.5c0-2-0.6-3.2-2.2-4.4c-17.2-12-34.2-24.1-51.4-36.1
		c-1.9-1.3-2.5-2.6-2.5-4.9c0.1-18.9,0-37.8,0.1-56.7c0-3.2-0.9-4.8-3.8-6.2c-6.5-3.2-12.8-6.8-19-10.4c-1-0.6-1.9-2.2-1.9-3.4
		c0-0.7,0-1.5,0-2.2c-1.4,0-2.7,0.1-4.1,0.1C342.2,240.4,342.1,240.4,342,240.4z"/>
	<path class="st1" d="M321,347c0,51.3,0,102.6,0,153.8c0,1.7-0.2,3.1-2.1,4c-3.8,1.9-5.4,5.9-4.5,9.8c0.8,3.7,4.5,6.8,8,7
		c4.8,0.2,8.2-2.1,9.6-6.5c1.5-4.7-0.5-8.3-6.3-11.6c0-87.9,0-175.9,0-263.9c-1.6-0.1-3.1-0.3-4.7-0.4C321,275.2,321,311.1,321,347z
		 M330,512.6c0,3.6-3.2,6.6-7,6.6c-3.8,0-6.4-2.8-6.3-6.7c0.1-3.6,3.1-6.7,6.6-6.6C326.8,506.1,330,509.3,330,512.6z"/>
	<path class="st1" d="M428.2,221.1c-1.4,0.7-2.8,1.3-4.2,2c0,22.2,0,44.3,0,66.5c0,13.3,0.1,26.6,0.1,39.8c0,1.5-0.3,2.4-1.9,3.4
		c-2,1.3-3.9,3.7-4.6,6c-1.4,4.6,1.7,9.3,6.1,10.6c4.7,1.4,9-0.8,10.9-5.4c1.8-4.5,0-8.8-4.6-11.3c-0.9-0.5-1.7-2-1.8-3
		c-0.2-4.7-0.1-9.5-0.1-14.2C428.2,284,428.2,252.6,428.2,221.1z M433,340.9c0,3.5-3.1,6.6-6.7,6.6c-3.9,0.1-6.8-2.9-6.7-6.8
		c0-3.7,2.9-6.6,6.6-6.6C430.1,334.2,433.1,337.1,433,340.9z"/>
	<path class="st1" d="M389.5,288.8c0,3.8,0.7,6.7,3.7,9c1.8,1.4,2.8,3,2.2,5.8c-1,4.7,2.6,8.9,7.3,9c4.6,0.2,8.4-3.6,8.3-8.3
		c-0.1-4.5-4-7.8-8.8-7.5c-4.7,0.4-8.3-3.1-8.3-7.8c0-18.5,0-36.9,0-55.4c-1.4,0.4-2.9,0.8-4.4,1.1
		C389.6,252.8,389.6,270.8,389.5,288.8z"/>
	<path class="st1" d="M251.9,289.9c-1.4,0-2.5,0-3.6,0c-8.4,0-16.9,0-25.3,0c-2,0-3.4,0.3-4.5,2.4c-5.7,10.7-11.7,21.2-17.4,31.8
		c-0.6,1-0.7,2.4-0.7,3.6c-0.1,6.1,0,12.2,0,18.3c-5.5,2.7-7.6,5.7-6.8,9.2c0.9,3.7,4.8,6.4,9.4,6.5c4.1,0.1,8.3-2.6,9.2-5.9
		c1.1-4-0.5-6.4-6.8-10c0-5.2-0.2-10.5,0.1-15.7c0.1-2.5,0.8-5.2,1.9-7.4c4.5-8.7,9.4-17.1,14.1-25.7c1-1.9,2.2-2.7,4.4-2.7
		c9.4,0.1,18.8,0.1,28.2,0.1c0.8,0,1.6-0.1,2.8-0.2c0-24.2,0-48.5,0-72.7c-1.6-0.8-3.3-1.6-4.9-2.4
		C251.9,242.5,251.9,266.1,251.9,289.9z"/>
	<path class="st1" d="M123.7,53.8c0,1.3,0,2.5,0,3.8c6.2,0,12.4,0.1,18.6,0.1c-0.1-1.3-0.2-2.6-0.3-4
		C135.8,53.8,129.7,53.8,123.7,53.8z"/>
	<path class="st1" d="M123.7,88c0,1.3,0,2.5,0,3.8c8.2,0,16.4,0,24.6,0c-0.3-1.3-0.7-2.5-1-3.8C139.4,88,131.5,88,123.7,88z"/>
	<path class="st1" d="M124.6,19.7c-0.3,0-0.6-0.1-0.9-0.1c0,1.7,0,3.4,0,5.1c6.1-0.1,12.2-0.3,18.3-0.3c0.1-1.5,0.3-3.1,0.4-4.6
		C136.4,19.7,130.5,19.7,124.6,19.7z"/>
	<path class="st1" d="M287.1,277.5c0,8.2,0.1,16.5-0.1,24.7c0,1.3-0.7,2.8-1.5,3.8c-4,4.4-8.3,8.7-12.3,13.1c-1,1.1-1.8,2.7-1.9,4
		c-0.2,10.1-0.1,20.3,0,30.4c0,1,0.8,2.3,1.6,2.9c3.9,2.7,7.9,5.3,12,7.6c1.8,1,2.2,2.1,2.2,3.9c-0.1,38.1-0.1,76.2,0,114.3
		c0,1.9-0.3,2.9-2.3,3.7c-3.8,1.6-5.6,6.6-4.5,10.8c1,3.6,4.8,6.5,8.7,6.5c4.3,0,7.9-2.6,9.1-6.8c1.1-3.9-0.5-8.5-4.2-10.2
		c-2.6-1.1-2.9-2.7-2.9-5.1c0-38,0-76,0.1-114c0-2.9-0.8-4.6-3.3-6c-3.7-2.1-7.4-4.5-10.9-6.9c-0.9-0.6-1.7-1.9-1.7-2.9
		c-0.1-9.1-0.1-18.1,0-27.2c0-0.9,0.5-2,1.1-2.7c4.1-4.5,8.3-9,12.6-13.3c1.5-1.5,2.2-3,2.2-5.2c0-23.1,0-46.2-0.1-69.3
		c-1.3-0.3-2.6-0.7-3.8-1C287.1,247.6,287.1,262.6,287.1,277.5z M288.8,487.4c3.8-0.1,6.9,2.8,7,6.5c0.1,3.7-2.9,6.8-6.7,6.8
		c-4.1,0-6.7-2.5-6.7-6.6C282.5,490.2,285,487.5,288.8,487.4z"/>
	<path class="st1" d="M124.6,119.7c-0.3,0-0.6,0-0.9-0.1c0,1.5,0,3,0,4.4c12.1,0,24.2,0,36.4,0c-0.7-1.4-1.3-2.9-2-4.3
		C146.9,119.7,135.8,119.7,124.6,119.7z"/>
	<path class="st1" d="M812.7,46.9c-4.1-1-8.8,0.8-10.5,4.5c-1,2.3-2.4,2.4-4.4,2.4c-33.2,0-66.5,0-99.7,0c-5.4,0-10.8-0.1-16.1,0.1
		c-1.1,0-2.5,0.5-3.1,1.3c-2.8,4.1-5.5,8.2-8,12.5c-0.9,1.6-1.9,2.2-3.7,2.2c-8.9-0.1-17.9,0-26.8-0.2c-1.2,0-2.6-0.8-3.5-1.6
		c-4.2-3.9-8.3-7.8-12.2-11.9c-1.9-1.9-3.9-2.5-6.4-2.5c-25.1,0-50.3,0-75.4,0.1c-0.1,1.2-0.2,2.5-0.3,3.7c1.3,0,2.6,0,4,0
		c23.7,0,47.5,0,71.2,0.1c1.3,0,3,0.4,3.9,1.2c4.7,4.2,9.1,8.7,13.8,13c1,0.9,2.5,1.6,3.8,1.7c10.1,0.1,20.3,0.1,30.4-0.1
		c1,0,2.4-0.8,2.9-1.6c2.7-3.9,5.2-7.9,7.6-12c1.1-1.9,2.3-2.3,4.3-2.3c37.9,0.1,75.8,0.1,113.6,0c2,0,3.2,0.3,4,2.4
		c1.6,3.8,6.1,5.7,10,4.7c4.4-1.1,7.3-4.4,7.4-8.6C819.6,51.7,816.8,47.9,812.7,46.9z M810.1,62.6c-3.7-0.2-6.6-3.3-6.5-7.1
		c0.1-3.8,3.2-6.8,7-6.6c3.9,0.2,6.5,3,6.4,7C816.8,59.8,813.7,62.8,810.1,62.6z"/>
	<path class="st1" d="M675.6,82.6c-3.2-1-6.7,0.2-8.5,3.2c-0.9,1.5-1.8,2.1-3.6,2.1c-12.3-0.1-24.7,0.1-37,0.1
		c-29.7,0-59.4,0-89.1,0c-0.3,1.4-0.7,2.7-1.1,4.1c22.9,0,45.7,0,68.6,0c7.1,0,14.1-0.2,21.2-0.2c12.1,0,24.2,0.1,36.3,0
		c2.3,0,3.8,0.4,5.1,2.6c1.7,2.9,5.6,3.9,8.6,2.8c2.6-0.9,5.1-4.6,5.1-7.4C681.2,86.6,678.9,83.6,675.6,82.6z"/>
</g>
<g>
	<path class="st2" d="M681.7,118.1c-11.4-6.5-18.9-16.2-24.2-27.5c-3-6.2-4.9-13-7.1-19.5c-0.3-0.8,0.2-2.3,0.8-2.8
		c4.2-3.5,8.6-6.7,12.9-10c1.2,4.5,2,9,3.6,13.2c5,13,12.1,24.7,23.9,32.9c9.3,6.5,19.9,9.9,31,11.6c8.8,1.3,17.8,2,26.7,2.9
		c-0.2,0.2-0.5,0.8-1,1.3c-5.1,5.2-10.2,10.3-15.5,15.4c-0.8,0.8-2.2,1.4-3.4,1.4c-49.9,0.1-99.9,0.1-149.8,0
		c-7.2,0-11.9-3.9-15-10.1c-6.3-12.7-12.7-25.3-19-38c-1.2-2.3-2.3-4.6-3.6-7.2c-2.5,2.7-4.7,5.2-7.2,8c4.8,9.5,9.8,19.6,14.9,29.7
		c2.8,5.6,1.7,11.9-2.8,15.4c-1.5,1.2-3.7,2.2-5.6,2.2c-47.6,0.1-95.2,0.1-142.8,0.1c-0.3,0-0.5-0.1-0.9-0.2c-0.8-2.8,0-4.5,2.7-6
		c9.4-5.3,17.2-12.5,23.2-21.5c2.2-3.3,3.9-3.4,6,0c4.4,7,11.4,8.7,18.8,8.9c13.2,0.3,26.4,0.1,39.7,0.1c11.8,0,23.6,0,35.4,0
		c4.9,0,6.1-1.9,3.9-6.3c-3-6.1-6.1-12.1-9.1-18.2c-3.8-7.8-2-10.6,2.3-14.6c4.7-4.4,9.1-9.1,13.7-13.6c6.7-6.6,17.7-4.8,21.9,3.6
		c6.8,13.5,13.5,26.9,20.2,40.4c2.9,5.9,7.5,8.9,14.2,8.8c6.7-0.1,13.4,0,20.5,0c-0.9-9.8,0.9-20.1-9.7-25.7
		c4.8-3.9,9.6-7.2,13.7-11.4c4.1-4.1,7.5-8.8,11.6-12.8c0.4,0.2,0.7,0.5,1.1,0.7c0,16.3,0,32.5,0,49
		C645.8,118.1,663.6,118.1,681.7,118.1z"/>
	<path class="st3" d="M1048.7,68.3c0,23.5,0,45.9,0,68.7c-16.4,0-32.6,0-48.9,0c-2.4,25.1-20,43.7-45.9,40c0.9-0.6,1.7-1.5,2.6-1.9
		c11.9-4.6,19.7-13,23.4-25.1c1.4-4.6,2.2-9.6,2.4-14.4c0.3-7.8,0-15.7-0.5-23.5c-0.4-6-2.1-11.7-7.6-15.3c-1.3-0.9-1.2-1.8,0.1-2.5
		c0.3-0.2,0.6-0.4,1-0.6c5.3-2.8,10-6.3,13.5-11.3c2.2-3.1,5.1-5.8,7.7-8.7c0.6-0.7,1.6-1,2.9-1.9c0,8.3,0,16,0,23.6
		c0,7.5,0,15.1,0,22.7c10.8,0,21.3,0,32.2,0c0.2-6.8,0.2-13.6-3.1-19.7c-1.1-1.9-3.2-3.3-5-4.8c-1.1-1-1.6-1.9-0.1-2.6
		c9.7-4.3,15.1-13.1,22-20.3C1046.4,70,1047.3,69.4,1048.7,68.3z"/>
	<path class="st3" d="M773.5,163.9c0.8-1,1.2-1.8,1.8-2.2c10.5-6.7,19.3-15.1,25.4-26.1c1.6-2.8,1.9-2.8,3.6-0.1
		c4.6,7.6,12.2,9.6,20.2,9.8c13.9,0.3,27.8,0.2,41.6,0.1c8-0.1,12.8-5.2,12.7-13.1c-0.2-8.2-0.5-16.4-1.3-24.5
		c-0.4-4.4-2.7-8.2-6.7-10.7c-1.3-0.8-2-1.9-0.2-2.7c9.4-4.1,14.7-12.7,21.4-19.8c0.9-0.9,2-1.7,3.5-3c0.1,1.8,0.2,2.6,0.2,3.4
		c0,21-0.1,41.9,0,62.9c0,9.1-2.9,16.6-10.6,21.9c-4.3,3-9.3,4.3-14.4,4.3c-32,0.1-64,0.1-96,0.1
		C774.7,164.2,774.5,164.1,773.5,163.9z"/>
	<path class="st3" d="M935,4.7c0,2.1,0,3.2,0,4.3c0,36,0,71.9,0,107.9c0,7.5,0.9,14.9,5.7,21.1c3.6,4.6,8.2,7.4,14.2,7.5
		c4.2,0.1,8.5,0,13,0.5c-0.7,0.5-1.3,1.1-2,1.4c-7.3,3.5-14.9,5.9-23,6.4c-12.5,0.8-21.6-6.6-23.8-19.3c-0.7-3.9-1.1-7.9-1.1-11.8
		c-0.1-24.2,0-48.3-0.2-72.5c0-3.9-0.9-7.8-1.7-11.7c-0.8-3.6-2.8-6.6-6-8.6c-1.4-0.9-2.2-2-0.2-2.8c9.5-4.2,14.8-12.9,21.6-20
		C932.4,6.4,933.4,5.9,935,4.7z"/>
	<path class="st3" d="M850,67.4c0,4.6-3.9,8.5-8.5,8.3c-4.5-0.1-8.1-3.9-8.2-8.4c0-4.7,3.7-8.5,8.4-8.5
		C846.3,58.9,850,62.7,850,67.4z"/>
	<path class="st2" d="M677,167c-4.6-0.1-8.4-4.1-8.3-8.6c0.1-4.5,4.2-8.4,8.7-8.3c4.4,0.2,8.2,4.1,8.2,8.5
		C685.5,163.1,681.5,167.1,677,167z"/>
	<path class="st2" d="M611.5,156.9c4.2,0,7.5,3.4,7.5,7.6c0,4.2-3.4,7.6-7.5,7.6c-4.1,0-7.5-3.5-7.5-7.6
		C604,160.2,607.3,156.9,611.5,156.9z"/>
	<path class="st2" d="M503.6,150.6c4.6-0.1,9.2,3.8,9.2,7.7c0,3.9-3.4,7.4-7.3,7.5c-4,0.1-7.5-3.3-7.6-7.4
		C497.8,153.4,499.9,150.7,503.6,150.6z"/>
	<path class="st3" d="M1043.8,65.6c-4-0.2-7.5-3.9-7.3-7.9c0.2-4.1,3.8-7.5,7.8-7.4c4.1,0.2,7.4,3.8,7.3,7.9
		C1051.5,62.2,1047.8,65.7,1043.8,65.6z"/>
	<path class="st2" d="M636.9,157.9c0,4.2-3.3,7.5-7.5,7.5c-4.2,0-7.5-3.4-7.4-7.6c0.1-4.3,3.3-7.5,7.5-7.5
		C633.7,150.4,636.9,153.6,636.9,157.9z"/>
	<path class="st2" d="M487.5,172.3c-4.2,0-7.6-3.2-7.6-7.4c0-4.3,3.1-7.5,7.4-7.5c4.3,0,7.6,3.1,7.6,7.4
		C495,168.9,491.7,172.2,487.5,172.3z"/>
	<path class="st3" d="M1026.1,57c4.4,0,7.5,3.1,7.5,7.5c0,4.4-3.3,7.5-7.8,7.4c-4-0.1-7.3-3.5-7.3-7.5
		C1018.6,60.2,1021.8,57,1026.1,57z"/>
</g>
<path d="M-1925.2-220.6c-7.6,8.4-15.2,16.8-22.9,25.2c-3.5,3.8-7,7.6-10.4,11.5c-0.6,0.7-0.7,1.9-0.7,2.9
	c-0.1,32.3-0.1,64.6-0.2,96.9c0,1.7,0,3.3,0,5.4c-1.4,0-2.5,0-3.6,0c-25.3,0-50.6-0.1-76,0.1c-4.1,0-7.5-1-10.8-3.3
	c-19.6-13.6-39.3-27.1-59.1-40.5c-1.3-0.9-3-1.3-4.6-1.4c-3.3-0.2-6.6-0.1-10.1,0.6c2.7,1.9,5.4,3.8,8.1,5.7
	c13.8,9.4,27.7,18.8,41.5,28.2c8.7,5.9,17.5,11.6,26.3,17.4c1,0.6,2.3,0.9,3.5,0.9c27.7,0.1,55.5,0.1,83.2,0c1,0,2.3-1.1,2.9-2
	c2.1-2.9,5.6-4.4,9.1-3.5c3,0.8,5.7,4.2,5.8,7.5c0.1,3.3-2.1,6.7-5.3,7.9c-3.2,1.2-7.4,0.2-9.2-2.9c-1.2-2.2-2.7-2.4-4.9-2.4
	c-27.5,0-55.1,0-82.6-0.1c-1.9,0-4.2-0.7-5.8-1.8c-17-11.4-34-22.9-51-34.4c-9.3-6.3-18.6-12.8-27.9-19c-1.7-1.1-4-1.9-6-2
	c-43-0.1-86-0.1-129-0.2c-2.1,0-3.6,0.5-4.4,2.6c-0.8,2-2,3.9-3.2,6.2c2.2,0,3.9,0,5.7,0c42,0,84,0,126,0.1c1.7,0,3.7,0.7,5.1,1.8
	c10.7,8.3,21.3,16.7,32,25.2c1.5,1.2,2.7,2,4.9,1c3.2-1.4,7.3,0.3,9.2,3.1c1.8,2.8,1.5,7.2-0.6,9.7c-2.1,2.5-6.4,3.3-9.5,1.9
	c-3.2-1.4-4.9-4.9-4.6-8.6c0.1-1-0.5-2.4-1.3-3c-10.7-8.6-21.4-17.1-32.2-25.5c-1.2-0.9-3.1-1.1-4.7-1.1c-41.7-0.1-83.4,0.1-125-0.3
	c-6-0.1-9,1.9-11.2,7c-1.6,3.7-3.8,7.2-5.9,11.2c1.2,0.1,2.1,0.2,3,0.2c28.9,0,57.8,0,86.7,0.2c3,0,3.8-2,5.4-3.5
	c2.5-2.5,6.4-3.2,9.2-1.5c3.5,2,5.1,5.9,4,9.4c-1.2,3.5-4.8,6.3-8.2,5.5c-2.2-0.5-4.1-2.5-6.2-3.8c-1-0.6-2.1-1.7-3.2-1.7
	c-30.3-0.1-60.6-0.1-90.8-0.1c-1,0-2.5,0.4-2.9,1.1c-3.5,6.1-6.7,12.3-10.3,18.8c2.2,0.1,3.9,0.2,5.5,0.2c37.1,0,74.3,0,111.4-0.1
	c1.4,0,3.1-0.6,4.3-1.5c8.5-6.2,16.9-12.5,25.2-19c0.9-0.7,1.3-2.7,1.3-4c-0.2-6.4,4.9-10.8,11.1-9.5c3.6,0.8,5.8,3.1,6.6,6.5
	c0.8,3.5,0.1,6.7-2.9,9.1c-2.9,2.3-6.2,3.2-9.4,1.3c-2.1-1.2-3.2-0.4-4.6,0.7c-8.7,6.6-17.5,13.2-26.3,19.7c-0.9,0.6-2.1,1-3.2,1
	c-36.3,0-72.6-0.1-108.9-0.1c-2.3,0-4.6,0.1-6.9,0.1c-6.2,0-7.3,0.9-9.1,7.6c10,0,19.8,0,29.7,0c76.5,0,153,0,229.4,0
	c35.9,0,71.7,0,107.6,0c2.1,0,3.6-0.3,4.9-2.3c2.7-4,7.1-4.5,11-1.7c3.4,2.3,4.4,7,2.3,10.3c-2.5,4-7,5.3-10.9,3.2
	c-0.7-0.4-1.7-0.9-1.9-1.5c-1.3-4.1-4.5-3.5-7.7-3.5c-31.3,0-62.7,0-94,0c-90,0-180,0-269.9-0.1c-2.8,0-4.5,0.8-5.4,3.3
	c-0.8,2.1-2.3,2.5-4.4,2.5c-8.1-0.1-16.2,0-24.5,0c-0.1,2.3-0.3,4.4-0.4,6.8c-5.2,0-10.1,0-15.3,0c0,5.8,0,11.3,0,17
	c5.1,0,10.2,0,15.4,0c0.1,2.3,0.2,4.2,0.3,6.5c1.6,0,2.9,0,4.2,0c93.9,0,187.8,0,281.7,0c37.1,0,74.3-0.1,111.4,0c4,0,5.7-2.8,7.9-5
	c0.4-0.4,0-1.6-0.2-2.3c-1.4-5.2,2.5-9,6.1-9.7c4.9-0.9,9.5,2.7,9.7,7.5c0.3,4.4-3.6,8.9-8,8.1c-4.2-0.8-6.5,1.2-8.7,3.8
	c-1.4,1.6-2.9,2-5,2c-39.1-0.1-78.2-0.2-117.3-0.2c-75.1,0-150.2,0.1-225.4,0.1c-17.5,0-35,0-52.5,0c-1.3,0-2.5,0-4,0
	c-0.1,2.1-0.3,4.1-0.4,6.2c-5.1,0-10.1,0-15.2,0c0,5.8,0,11.3,0,17.2c5,0,10,0,15.3,0c0.1,2.3,0.2,4.2,0.4,6.5c1.3,0,2.5,0,3.6,0
	c117.9,0,235.7,0,353.6,0c3,0,5.2,0,6.6-3.5c1.2-3.1,6.5-4.2,10.1-2.9c3.9,1.4,6.3,5.2,6,9.4c-0.3,3.8-3.3,7.2-7,7.9
	c-4.4,0.8-8.1-0.8-10-4.8c-1-2-2.4-1.7-3.9-1.7c-24.8,0-49.6,0-74.4,0c-48.3,0-96.6,0-145,0c-45.1,0-90.3,0-135.4,0
	c-1.3,0-2.7,0-4.2,0c-0.1,2.2-0.2,4.1-0.3,6.3c-5.2,0-10.2,0-15.4,0c0,5.8,0,11.2,0,17.1c5,0,10.1,0,15.4,0c0.1,2.4,0.2,4.4,0.3,6.7
	c1.5,0,2.8,0,4.2,0c52,0,104,0,156.1-0.1c2.6,0,4.6,0.5,6.4,2.5c3.9,4.1,8.1,8,12.2,11.9c0.9,0.8,2.3,1.6,3.5,1.6
	c8.9,0.2,17.9,0.1,26.8,0.2c1.8,0,2.8-0.6,3.7-2.2c2.5-4.3,5.2-8.4,8-12.5c0.6-0.8,2-1.3,3.1-1.3c5.4-0.1,10.8-0.1,16.1-0.1
	c33.2,0,66.5,0,99.7,0c2,0,3.4-0.2,4.4-2.4c1.6-3.8,6.4-5.6,10.5-4.5c4.1,1.1,6.9,4.8,6.8,9.2c-0.1,4.2-2.9,7.5-7.4,8.6
	c-3.9,0.9-8.4-0.9-10-4.7c-0.9-2.1-2.1-2.4-4-2.4c-37.9,0-75.8,0-113.6,0c-2,0-3.2,0.4-4.3,2.3c-2.3,4.1-4.9,8.1-7.6,12
	c-0.6,0.8-1.9,1.6-2.9,1.6c-10.1,0.1-20.3,0.2-30.4,0.1c-1.3,0-2.8-0.8-3.8-1.7c-4.7-4.3-9.1-8.7-13.8-13c-0.9-0.8-2.6-1.2-3.9-1.2
	c-23.7-0.1-47.5-0.1-71.2-0.1c-28.2,0-56.3,0-84.5,0c-1.2,0-2.5,0-3.6,0c-0.3,0.4-0.5,0.6-0.5,0.8c-0.3,6-0.3,6-6.4,6
	c-0.7,0-1.5,0-2.2,0c-7.2-0.1-7.2-0.1-7.2,7.2c0,3.2,0,6.3,0,9.8c5.3,0,10.3,0,15.5,0c0.1,2.3,0.2,4.3,0.4,6.6c1.3,0,2.4,0,3.6,0
	c55,0,110,0,164.9,0c12.3,0,24.7-0.1,37-0.1c1.9,0,2.7-0.5,3.6-2.1c1.8-3,5.3-4.2,8.5-3.2c3.3,1,5.6,4,5.6,7.2
	c0,2.8-2.5,6.5-5.1,7.4c-3.1,1.1-6.9,0.1-8.6-2.8c-1.3-2.2-2.9-2.6-5.1-2.6c-12.1,0.1-24.2,0-36.3,0c-7.1,0-14.1,0.2-21.2,0.2
	c-47.6,0-95.2,0-142.8,0c-1.3,0-2.7,0-4.1,0c-0.1,2.3-0.2,4.2-0.4,6.4c-5.1,0-10.1,0-15.3,0c0,5.8,0,11.2,0,17c5,0,10,0,15.4,0
	c0,2.4,0,4.4,0,6.8c7.6,0,14.8,0.1,22.1-0.1c1.3,0,2.6-1.6,3.7-2.7c2.5-2.4,5-4.9,7.2-7.6c2.1-2.6,4.5-3.2,7.6-3.2
	c9,0.2,17.9,0.1,26.9,0.1c1.6,0,2.3,0.5,3.1,1.9c3.8,7.2,7.6,14.3,11.6,21.3c0.5,0.8,1.9,1.6,2.9,1.6c37.7,0.1,75.3,0.1,113,0
	c1.9,0,3.9-1.3,5.6-2.4c19-12.6,38-25.2,57-37.8c1.5-1,3.5-1.5,5.3-1.5c37-0.1,74.1-0.1,111.1-0.1c1.5,0,3.2-0.4,4.3-1.2
	c10-8.1,19.9-16.2,29.7-24.5c1-0.9,1.8-2.6,1.8-4c0.1-11.5,0.2-23,0-34.5c0-2.4,0.8-3.6,2.8-4.6c8.1-4.2,16.1-8.6,24.2-12.8
	c1.7-0.9,2.4-2,2.4-3.9c-0.1-7,0-13.9-0.1-20.9c0-2,0.6-3.2,2.3-4.4c5.2-3.6,10.3-7.4,15.2-11.3c0.8-0.7,1.3-2.3,1.3-3.4
	c0.2-4.5,3-8,7.2-8.5c3.4-0.4,7.6,2.8,8.5,6.7c0.7,2.9-0.5,5.1-2.5,7.1c-2.4,2.3-5.3,2.7-8.2,1.6c-1.8-0.7-2.8-0.3-4.2,0.7
	c-4.3,3.3-8.8,6.4-13.1,9.9c-1.1,0.9-2,2.7-2,4.1c-0.2,7.1-0.2,14.1,0,21.2c0,2-0.6,2.9-2.4,3.8c-8.3,4.3-16.5,8.9-24.8,13.2
	c-1.9,1-2.4,2.2-2.4,4.2c0.1,10.7-0.2,21.3,0.1,32c0.1,3.6-1.2,5.8-3.8,7.9c-10.3,8.2-20.4,16.6-30.7,24.8c-1.2,0.9-3.1,1.3-4.6,1.3
	c-36.7,0.1-73.4,0.1-110.2,0c-2.6,0-4.8,0.6-7,2.1c-18.2,12.2-36.5,24.2-54.7,36.3c-3.5,2.3-7,3.7-11.4,3.6
	c-13.8-0.3-27.6-0.1-41.5-0.1c-1.1,0-2.3,0-3.9,0c2.8,4,5.2,7.6,7.7,11.2c8.9,12.6,17.8,25,26.5,37.7c1.6,2.3,3.2,2.9,5.7,2.8
	c21.3-0.1,42.6-0.1,63.9-0.1c9,0,17.9,0,26.9,0c1.2,0,2.5,0,4.4,0c-0.7-1.4-1-2.2-1.5-2.9c-6.9-11.8-13.7-23.6-20.7-35.4
	c-0.5-0.8-2.2-1.3-3.3-1.3c-21.3-0.1-42.6-0.1-63.9-0.1c-6.2,0-12.4,0-19.3,0c1.4,2,2.4,3.6,3.6,5.1c4.5,5.9,9,11.6,13.4,17.5
	c1.3,1.8,2.7,2.7,4.9,2.6c7.8-0.1,15.6,0.1,23.4,0c1,0,2.2-0.8,2.8-1.7c2.5-3.7,6.6-5,10.4-3.1c3.4,1.7,5,5.8,3.7,9.3
	c-1.5,4.1-5.5,6.3-9.6,4.9c-1.7-0.6-2.9-2.3-4.4-3.4c-1.1-0.8-2.3-1.8-3.5-1.8c-8.5-0.2-17.1-0.2-25.6-0.4c-1.3,0-3-0.6-3.7-1.6
	c-7.7-9.9-15.3-19.8-22.9-29.8c-0.4-0.6-0.8-1.2-1.5-2.2c1.6,0,2.7,0,3.8,0c30.2,0,60.4,0,90.5,0c2.1,0,3.1,0.6,4.1,2.4
	c7.5,13.1,15.3,26.1,22.8,39.1c1.1,2,2.4,2.5,4.5,2.5c23.3-0.1,46.5-0.1,69.8-0.1c1.9,0,3-0.5,4-2.3c1.5-2.8,5.6-4,8.9-2.9
	c2.9,0.9,5.1,3.9,5.1,7.2c0.1,3.3-2.2,6.7-5.1,7.6c-3.1,1-7.3,0-8.7-2.8c-1.3-2.6-3.2-2.8-5.6-2.8c-58.2,0-116.5,0-174.7,0
	c-2.6,0-3.9-0.9-5.3-2.9c-12-17.3-24.1-34.5-36.3-51.6c-0.6-0.8-2.3-1.3-3.5-1.3c-19.2-0.1-38.4-0.1-57.5,0c-3,0-4.4-1-5.7-3.5
	c-3.2-6.4-6.7-12.6-10-18.9c-0.9-1.7-2-2.5-4.2-2.5c-8,0.2-16,0-24.1,0.1c-1.5,0-3.2,0.9-4.4,1.9c-2.2,1.8-4.3,3.8-5.9,6.1
	c-3.4,4.7-7.7,6.1-13.3,5.6c-5.3-0.5-10.7-0.1-16.3-0.1c-0.2,2.1-0.3,3.9-0.5,6.1c-5.2,0-10.2,0-15.4,0c0,2.3,0,4.3,0,6.5
	c-1.3,0.1-2.3,0.2-3.3,0.2c-4,0-4,0-4,4.1c0,3.2,0,6.5,0,9.9c-2.4,0.1-4.3,0.3-6.4,0.4c0,1.1-0.1,2-0.1,2.9c0,52.9,0,105.7,0,158.6
	c0,4.7-0.1,9.5,0.1,14.2c0,1.1,0.9,2.5,1.8,3c4.6,2.5,6.4,6.8,4.6,11.3c-1.9,4.6-6.2,6.8-10.9,5.4c-4.4-1.3-7.4-6-6.1-10.6
	c0.7-2.3,2.6-4.7,4.6-6c1.6-1,1.9-1.9,1.9-3.4c0-13.3-0.1-26.6-0.1-39.8c0-44,0-88,0-132c0-1.1,0-2.3,0-3.7c-2.1-0.1-4-0.2-6.1-0.4
	c0-4.6,0-9.1,0-13.9c-5.8,0-11.3,0-17.3,0c0,4.4,0,9,0,13.9c-2.4,0-4.3,0-6.6,0c0,1.5,0,2.6,0,3.7c0,43.9,0,87.8,0,131.7
	c0,4.8,3.6,8.2,8.3,7.8c4.7-0.4,8.7,3,8.8,7.5c0.1,4.7-3.7,8.5-8.3,8.3c-4.7-0.2-8.3-4.3-7.3-9c0.6-2.8-0.4-4.4-2.2-5.8
	c-3-2.4-3.7-5.3-3.7-9c0.1-43.7,0.1-87.4,0.1-131.1c0-1.2,0-2.5,0-3.9c-2.1-0.1-3.8-0.2-6-0.3c0-4.7,0-9.3,0-14
	c-5.9,0-11.3,0-17.2,0c0,4.7,0,9.3,0,14.1c-2.3,0-4.2,0-6.5,0c0,1.5,0,2.7,0,3.9c0,13.9-0.1,27.9,0.1,41.8c0,2.3-0.6,4-2.3,5.5
	c-3.1,2.7-5.9,5.7-9,8.5c-1.6,1.4-2.3,3-2.3,5.2c0.1,8,0,16,0.2,24c0,1.2,1,2.8,1.9,3.4c6.3,3.6,12.6,7.2,19,10.4
	c2.9,1.4,3.8,3,3.8,6.2c-0.2,18.9,0,37.8-0.1,56.7c0,2.2,0.6,3.6,2.5,4.9c17.2,12,34.2,24.1,51.4,36.1c1.7,1.2,2.2,2.3,2.2,4.4
	c0,51.5,0,103,0.1,154.5c0,7.1,0.1,14.3-0.1,21.4c-0.1,2.2,0.6,3.5,2.3,4.7c2.9,1.9,3.6,4.9,2.9,8.1c-0.8,3.2-3.2,4.9-6.3,5.5
	c-3.1,0.6-5.5-0.8-7.4-3.3c-2.6-3.4-1.6-7.7,2.1-10.9c1.1-0.9,2.1-2.7,2.1-4.1c0-22.8-0.2-45.6-0.1-68.3c0-3.4-1.2-5-4-6.6
	c-12.9-7.3-25.6-14.8-38.4-22.4c-0.8-0.5-1.6-1.7-1.6-2.6c-0.1-31.4,0-62.9,0-94.3c0-0.2,0.1-0.4,0.3-0.9c3.5,2.6,7,5,10.4,7.6
	c7.1,5.4,14.2,10.9,21.1,16.5c1.1,0.9,2.1,2.6,2.1,4c0.2,8.4,0.2,16.9,0.2,25.3c0,1.7,0.4,2.8,2,3.8c4,2.5,4.7,7.8,1.8,11.2
	c-3,3.6-8.3,3.8-11.7,0.6c-3.1-3-3-8.7,0.8-11.3c2.3-1.7,2.8-3.5,2.7-6.1c-0.2-7.2,0-14.4-0.3-21.5c-0.1-1.4-1-3.2-2.1-4.1
	c-7.4-5.9-14.9-11.5-22.8-17.5c-0.1,1.4-0.1,2.3-0.1,3.2c0,26.6,0,53.2,0,79.8c0,1.9,0.3,3.3,2.2,4.3c12,6.9,24,13.9,35.9,20.8
	c0.3,0.1,0.6,0.2,1.1,0.3c0.1-1,0.2-1.9,0.2-2.8c0-31,0-62,0.1-93.1c0-1.9-0.5-3.1-2.1-4.1c-16.3-11.4-32.5-22.9-48.8-34.2
	c-3.4-2.4-5.3-4.8-5.2-9.4c0.4-18.1,0.1-36.3,0.2-54.4c0-2.5-0.7-3.9-3-5.1c-6.6-3.4-13.1-7.1-19.7-10.6c-1.6-0.9-2.2-1.9-2.2-3.7
	c0.1-9.7,0-19.4,0.1-29.1c0-1.2,0.8-2.6,1.6-3.4c3.4-3.5,7-6.7,10.3-10.2c0.9-1,1.8-2.5,1.8-3.8c0.1-14.2,0-28.5,0-42.7
	c0-0.5-0.1-1-0.1-1.8c-2,0-3.8,0-6.1,0c0-4.8,0-9.3,0-14.4c-5.6,0-10.8-0.1-16,0.1c-0.5,0-1.2,1.5-1.2,2.4
	c-0.1,3.8-0.1,7.6-0.1,11.6c-2.3,0-4.2,0-6.5,0c0,116.9,0,233.5,0,350c5.8,3.3,7.7,7,6.3,11.6c-1.4,4.3-4.8,6.6-9.6,6.5
	c-3.5-0.1-7.2-3.3-8-7c-0.9-3.9,0.8-7.9,4.5-9.8c1.9-1,2.1-2.3,2.1-4c0-51.3,0-102.6,0-153.8c0-62.9,0-125.8,0.1-188.7
	c0-1.4,0-2.9,0-4.3c-6-0.8-6-0.8-6-6.8c0-2.4,0-4.8,0-7.5c-5.7,0-11.1,0-16.8,0c0,4.7,0,9.2,0,14c-2.5,0-4.7,0-7.3,0
	c0,1.5,0,2.7,0,4c0,48.4,0,96.9,0.1,145.3c0,2.2-0.7,3.7-2.2,5.2c-4.3,4.3-8.5,8.8-12.6,13.3c-0.6,0.7-1.1,1.8-1.1,2.7
	c-0.1,9.1-0.1,18.2,0,27.2c0,1,0.8,2.3,1.7,2.9c3.5,2.4,7.2,4.8,10.9,6.9c2.5,1.4,3.3,3.1,3.3,6c-0.1,38,0,76-0.1,114
	c0,2.4,0.3,3.9,2.9,5.1c3.8,1.7,5.4,6.3,4.2,10.2c-1.2,4.2-4.8,6.9-9.1,6.8c-3.9,0-7.8-2.9-8.7-6.5c-1.1-4.2,0.8-9.2,4.5-10.8
	c2-0.8,2.3-1.9,2.3-3.7c0-38.1,0-76.2,0-114.3c0-1.9-0.4-2.9-2.2-3.9c-4.1-2.3-8.1-4.9-12-7.6c-0.8-0.6-1.6-1.9-1.6-2.9
	c-0.1-10.1-0.1-20.3,0-30.4c0-1.4,0.9-3,1.9-4c4-4.4,8.3-8.7,12.3-13.1c0.9-1,1.5-2.5,1.5-3.8c0.1-8.2,0.1-16.5,0.1-24.7
	c0-39.8,0-79.5,0-119.3c0-1.4,0-2.7,0-4.3c-2.1-0.1-3.9-0.2-6.2-0.3c0-4.7,0-9.3,0-14c-5.8,0-11.3,0-17.1,0c0,4.7,0,9.2,0,14.1
	c-2.5,0-4.5,0-7,0c0,46.9,0,93.5,0,140.3c-1.2,0.1-2,0.2-2.8,0.2c-9.4,0-18.8,0.1-28.2-0.1c-2.2,0-3.3,0.7-4.4,2.7
	c-4.6,8.6-9.5,17.1-14.1,25.7c-1.2,2.2-1.8,4.9-1.9,7.4c-0.3,5.3-0.1,10.5-0.1,15.7c6.3,3.6,7.9,6,6.8,10c-0.9,3.3-5.1,6-9.2,5.9
	c-4.6-0.1-8.6-2.8-9.4-6.5c-0.8-3.6,1.3-6.5,6.8-9.2c0-6,0-12.1,0-18.3c0-1.2,0.1-2.6,0.7-3.6c5.8-10.6,11.8-21.1,17.4-31.8
	c1.1-2.1,2.5-2.4,4.5-2.4c8.4,0.1,16.9,0,25.3,0c1.1,0,2.3,0,3.6,0c0-45.5,0-90.6,0-135.9c-1.5-0.1-3-0.2-4.8-0.4
	c0-4.8,0-9.5,0-14.3c-2.6,0-5,0-7.6,0c0-2.2,0-4.2,0-6.5c-5.2,0-10.3,0-15.7,0c0-3,0-5.7,0-8.8c-33.7,0-66.9,0-100.2,0
	c0-1.5,0-3,0-4.4c0.3,0,0.6,0.1,0.9,0.1c32.2,0,64.4,0,96.5,0c0.8,0,1.6-0.2,2.5-0.3c0.1-1.3,0.2-2.4,0.4-4c5.2,0,10.3,0,15.3,0
	c0-5.9,0-11.3,0-16.9c-3.9,0-7.6,0-11.3,0c-4.5,0-4.2,0.5-4.2-4.3c0-0.8-0.2-1.6-0.3-2.5c-33.4,0-66.6,0-99.8,0c0-1.3,0-2.5,0-3.8
	c33.3,0,66.6,0,100,0c0.1-2.3,0.2-4.3,0.3-6.5c5.3,0,10.3,0,15.5,0c0-5.8,0-11.3,0-17.3c-5.3,0-10.4,0-15.7,0c0-2.3,0-4.2,0-6.3
	c-5.6,0-10.9,0-16.3,0c-21.7,0-43.4-0.1-65.1-0.1c-6.2,0-12.4-0.1-18.7-0.1c0-1.3,0-2.5,0-3.8c25.3,0,50.6-0.1,75.9-0.1
	c8,0,15.9,0,24.1,0c0.1-2.2,0.2-4.2,0.3-6.5c5.3,0,10.4,0,15.4,0c0-5.9,0-11.3,0-17c-3.1,0-6,0-9,0c-6,0.1-6,0.1-7-5.9
	c-1,0-2-0.1-3-0.1c-25.2,0-50.4,0.1-75.6,0.1c-7.1,0-14.1,0.2-21.2,0.3c0-1.7,0-3.4,0-5.1c0.3,0,0.6,0.1,0.9,0.1
	c32.3,0.1,64.5,0.1,96.8,0.2c0.7,0,1.4-0.2,2.2-0.3c0.1-2.1,0.2-4.1,0.3-6.3c5.2,0,10.2,0,15.4,0c0-5.9,0-11.4,0-17.2
	c-5.2,0-10.2,0-15.4,0c-0.1-1.9-0.2-3.4-0.3-5.2c-1.4-0.1-2.7-0.2-4.1-0.2c-10.5,0-21.1,0-31.6,0.1c-2.1,0-3.5-0.5-4.9-2.1
	c-3.1-3.5-6.4-6.7-9.7-9.9c-0.8-0.8-2.2-1.3-3.3-1.3c-8.4-0.1-16.9-0.1-25.3,0c-1,0-2.3,0.9-2.8,1.7c-3.4,6-6.9,12.1-10,18.3
	c-1.8,3.7-4.1,5.6-8.3,4.6c0-1.5,0-3,0-4.4c1.7,0.1,3.1,0,4.1-2c3.6-7,7.6-13.8,11.2-20.8c0.9-1.7,2-2.1,3.8-2.1
	c9.6,0.1,19.2,0,28.8,0.2c1.4,0,3,0.8,4,1.8c3.2,3,6,6.5,9.3,9.5c1.2,1.1,3.2,2,4.8,2.1c10.3,0.2,20.7,0.1,31,0.1
	c0.9,0,1.8-0.1,3-0.2c0-2.4,0-4.5,0-7.1c5.4,0,10.5,0,15.7,0c0-5.8,0-11.2,0-17c-3.3,0-6.4,0-9.6,0c-5.7,0-5.7,0-6.2-5.6
	c0-0.2-0.2-0.3-0.4-0.6c-33.1,0-66.3,0-99.5,0c0-1.7,0-3.4,0-5.1c0.5,0,1,0.1,1.6,0.1c31.9,0.1,63.7,0.1,95.6,0.1
	c0.9,0,1.8-0.2,2.8-0.3c0-1,0.2-1.7,0.1-2.4c-0.4-2.7,0.6-3.8,3.5-3.6c3.3,0.3,6.5-0.1,9.8,0.1c1.9,0.1,2.7-0.5,2.6-2.5
	c-0.1-1.6,0-3.3,0-5.3c2.5,0,4.7,0,7.3,0c0-4.9,0-9.5,0-14.2c2.2-0.1,4-0.2,6-0.3c0.1-1,0.3-1.9,0.3-2.8c0-16.9,0-33.7,0-50.6
	c0-3.8-4-7-7.9-6.5c-4.4,0.6-8.8-3-9.1-7.3c-0.3-5,3.1-8.6,7.9-8.6c4.7,0,8.9,3.9,7.8,8.2c-1,4,0.9,5.8,3.4,7.8
	c1.7,1.3,2.4,2.9,2.3,5.1c-0.2,15.6-0.2,31.2-0.3,46.8c0,2.6,0.2,5.1,0.4,7.9c2.1,0.1,4,0.2,6.1,0.3c0,4.9,0,9.4,0,14.2
	c4.9,0,9.5-0.1,14.2,0.1c2.2,0.1,3-0.6,2.9-2.8c-0.2-3.8,0-7.5,0-11.4c2.4-0.1,4.5-0.2,6.6-0.4c0-10.3,0-20.2-0.1-30.1
	c0-0.9-0.5-2-1.2-2.7c-3.5-3.6-7.3-7-10.7-10.7c-1.1-1.2-2-3-2-4.6c-0.2-9.9-0.1-19.8,0-29.7c0-0.9,0.7-2.2,1.5-2.7
	c7.1-4,14.1-7.9,21.3-11.6c2.1-1.1,2.8-2.3,2.7-4.6c-0.1-15,0-30,0-44.9c1.5,0,3,0,4.4,0c0,16.1,0.1,32.3-0.1,48.4
	c0,1.1-1,2.8-2,3.3c-6.9,4-13.9,7.8-21.1,11.4c-2,1-2.4,2.2-2.4,4.2c0.1,8.2-0.1,16.5,0.1,24.7c0,1.5,0.9,3.2,1.9,4.3
	c3.3,3.4,6.9,6.5,10.1,9.9c1,1.1,1.8,2.9,1.8,4.3c0.2,9.2,0.1,18.4,0.1,27.5c0,1.1,0.1,2.2,0.2,3.5c2.2,0.1,4,0.2,6.2,0.3
	c0,4.8,0,9.4,0,14c5.7,0,11.1,0,16.8,0c0-4.8,0-9.3,0-14c2.3-0.1,4.1-0.2,6.1-0.3c0.1-1.2,0.2-2.1,0.2-3.1
	c0-43.4-0.1-86.7-0.1-130.1c0-2.1-0.8-3.1-2.5-4.3c-1.4-1-2.3-2.8-3.4-4.2c0.8,0,1.7,0,2.5,0c3.5,4.6,7.8,4.6,11.4,0
	c0.8,0,1.7,0,2.5,0c-1.1,1.4-2,3.3-3.4,4.2c-1.9,1.2-2.5,2.4-2.5,4.5c0,43.2-0.1,86.5-0.1,129.7c0,1,0.1,2.1,0.2,3.2
	c2.1,0.1,4,0.2,6.1,0.3c0,4-0.1,7.9,0.1,11.7c0,0.8,1,2.3,1.5,2.3c5,0.2,10,0.1,15.4,0.1c0-5,0-9.5,0-14.2c2.3-0.1,4.2-0.2,6.6-0.4
	c0-5.6,0-10.9,0-16.3c-0.1-21.8-0.2-43.7-0.3-65.5c-0.1-19.9-0.1-39.9-0.2-59.8c1.5,0,3,0,4.4,0c0.1,1.6,0.2,3.2,0.2,4.7
	c0,44.1-0.1,88.2-0.1,132.3c0,1.5,0,3.1,0,4.9c2.4,0,4.3,0,6.4,0c0,3.8,0.2,7.4-0.1,11c-0.2,2.7,0.9,3.5,3.4,3.3
	c3.5-0.2,7-0.3,10.4,0c3,0.2,3.6-0.9,3.5-3.6c-0.2-3.5,0-7.1,0-10.9c2.4,0,4.2,0,6.3,0c0.1-1.2,0.2-2.1,0.2-3.1
	c-0.1-43.8-0.1-87.6-0.2-131.4c0-2.4-0.2-4.8-0.3-7.2c1.5,0,3,0,4.4,0c0.1,0.5,0.3,1,0.3,1.5c0,27.3,0,54.6,0,81.9
	c0,18.8-0.1,37.6-0.1,56.3c0,0.6,0.2,1.2,0.3,1.9c2,0.1,3.8,0.2,6,0.3c0,4.1-0.1,8,0.1,11.9c0,0.8,1.1,2.2,1.7,2.2
	c5,0.2,10.1,0.1,15.5,0.1c0-4.9,0-9.5,0-14.1c2-0.1,3.7-0.2,5.6-0.4c0.1-1.4,0.2-2.8,0.2-4.1c0-22.9,0.1-45.7,0.1-68.6
	c0-15.7-0.1-31.4-0.2-47.1c0-7.3-0.2-14.5-0.4-21.8c1.7,0,3.4,0,5.1,0c-0.1,0.6-0.2,1.3-0.2,1.9c-0.1,19.4-0.2,38.8-0.3,58.1
	c0,11.3,0.2,22.5,0.2,33.8c0,14.9,0,29.7,0,44.6c0,1,0.1,2.1,0.2,3.2c2.3,0.1,4.4,0.2,6.9,0.3c0,4.8,0,9.4,0,14
	c2.6,0.1,4.8,0.2,7.3,0.3c0,2.5,0,4.9,0,7.7c5.3,0,10.3,0,15.7,0c0,2.1,0,3.9,0,5.8c8.1,0,15.9,0.1,23.7-0.1c0.9,0,2-1,2.5-1.8
	c4.4-7.9,8.7-15.8,13-23.7c9-16.5,17.9-33.1,26.8-49.6c0.9-1.8,2-2.2,3.9-2.2c32.6,0.1,65.2,0.2,97.7,0.2c17.8,0,35.6,0,53.4-0.3
	c4.5-0.1,8.5,0.5,12,3.6c1.9,1.7,4.3,2.9,6.5,4.4c17.3,11.8,34.5,23.6,51.9,35.3c1.5,1,3.6,1.8,5.4,1.8c24.6,0.1,49.2,0.1,73.7,0.1
	c0.9,0,1.8-0.1,3-0.2c0-1,0-1.8,0-2.7c0-31.8,0-63.7-0.1-95.5c0-2.3,0.6-3.9,2.1-5.6c10.2-11.1,20.2-22.2,30.3-33.4
	C-1929.4-220.6-1927.3-220.6-1925.2-220.6z M-1978.4,54.5c0.1-4-2.4-6.9-6.4-7c-3.8-0.2-6.9,2.8-7,6.6c-0.1,3.8,2.8,6.9,6.5,7.1
	C-1981.5,61.3-1978.5,58.3-1978.4,54.5z M-2506.1,499.3c3.8,0,6.8-3.1,6.7-6.8c-0.1-3.7-3.2-6.6-7-6.5c-3.8,0.1-6.4,2.8-6.3,6.7
	C-2512.8,496.8-2510.3,499.3-2506.1,499.3z M-2369.1,332.7c-3.7,0-6.5,2.9-6.6,6.6c0,3.9,2.9,6.9,6.7,6.8c3.5-0.1,6.6-3.1,6.7-6.6
	C-2362.2,335.6-2365.2,332.7-2369.1,332.7z M-2140.9-86.9c3.7,0,6.6-2.9,6.5-6.6c0-3.7-3.2-6.9-6.9-6.8c-3.5,0.1-6.6,3.3-6.6,6.8
	C-2147.8-89.7-2144.8-86.9-2140.9-86.9z M-1959.9,20.2c0-3.9-2.8-6.8-6.6-6.8c-3.5,0-6.7,3.1-6.7,6.6c-0.1,3.6,2.9,6.7,6.8,6.8
	C-1962.9,26.9-1959.9,23.9-1959.9,20.2z M-2472.3,517.8c3.8,0,7-3,7-6.6c0-3.4-3.2-6.6-6.7-6.7c-3.5-0.1-6.6,3-6.6,6.6
	C-2478.6,515-2476.1,517.7-2472.3,517.8z"/>
<g>
	<polygon class="st4" points="191.8,157.6 244,157.6 201.3,222.1 162.9,151.5 120.5,211 201.3,353.2 354.2,93.9 224,93.9 	"/>
	<polygon class="st5" points="204.8,68.3 370.3,68.3 402.6,5.6 -0.1,5.6 37.9,68.3 137.6,68.3 86.3,150.9 120.5,211 	"/>
</g>
<g>
	<path class="st3" d="M431.4,354.1V230.7h-28.6V201h94.6v29.7h-30.1v123.4H431.4z"/>
	<path class="st3" d="M512,354.1V201h40.3c13.2,0,22.8,0.6,28.7,1.8c6,1.2,10.8,3.3,14.5,6.3c4.4,3.6,7.6,8,9.8,13.2
		c2.2,5.2,3.2,11.5,3.2,18.7c0,8.8-1.5,16.2-4.6,22.2c-3.1,6-7.9,10.9-14.4,14.7c11.1,4.9,16.9,16.5,17.5,34.9c0,0.3,0,0.4,0,0.5
		c0.1,1.9,0.1,4.7,0.2,8.4c0.3,17.2,3.1,28,8.5,32.4h-41.8c-0.9-3.2-1.6-6.5-2-10c-0.4-3.5-0.6-7.2-0.6-11.2c0-2.5,0.1-5.4,0.2-8.9
		c0.1-3.5,0.2-5.7,0.2-6.8c0-9.3-1.2-15.7-3.7-19.2c-2.5-3.4-6.9-5.2-13.2-5.2h-7.4v61.2H512z M547.4,264.7c0.6,0,1.4,0,2.3,0.1
		c1,0.1,1.7,0.1,2.1,0.1c7.4,0,12.7-1.5,15.8-4.5c3.1-3,4.6-8,4.6-15.1c0-6.6-1.5-11.2-4.6-14c-3.1-2.7-8.3-4.1-15.8-4.1
		c-0.5,0-1.2,0-2.1,0.1c-1,0.1-1.7,0.1-2.3,0.1V264.7z"/>
	<path class="st3" d="M620.2,354.1L653.6,201h42.5l33,153.1h-35.8l-4.5-29.3h-28.1l-4.5,29.3H620.2z M664.5,297.1H685l-10.2-66.8
		L664.5,297.1z"/>
	<path class="st3" d="M743.2,354.1V201h37.3l29.7,94.4c-1.2-15.9-2.1-29.6-2.6-41.2c-0.6-11.5-0.8-21.3-0.8-29.2V201h31.9v153.1
		h-37.4l-29.9-97.3c1.3,12.7,2.3,24.9,3,36.8c0.7,11.9,1,23.4,1,34.6v25.8H743.2z"/>
	<path class="st2" d="M907.9,302.6h32.9c0,12.9,0.6,20.7,1.7,23.6c1.2,2.8,3.3,4.3,6.4,4.3c2.7,0,4.5-0.9,5.6-2.7
		c1.1-1.8,1.6-5.7,1.6-11.7V201h35.8v100.8c0,11.4-0.4,19.9-1.2,25.4c-0.8,5.5-2.2,10.1-4.1,13.7c-3,5.6-7.6,9.8-13.5,12.6
		c-6,2.8-13.3,4.3-22.1,4.3c-15.6,0-26.7-3.6-33.4-10.9c-6.7-7.3-10-19.4-10-36.5c0-2.1,0-3.7,0-4.8
		C907.7,304.5,907.8,303.5,907.9,302.6z"/>
	<path class="st2" d="M1017.1,354.1V201h35.8v153.1H1017.1z"/>
</g>
</svg>
